<svg width="24" height="24" xmlns="http://www.w3.org/2000/svg" xmlns:svg="http://www.w3.org/2000/svg">
 <g>
  <title>Layer 1</title>
  <path fill="#ff4451" id="svg_fire" d="m12.415,23.417c-5.51,0 -9.418,-3.766 -9.418,-8.954c0,-2.754 1.676,-5.721 1.747,-5.846a0.742,0.742 0 0 1 0.73,-0.361a0.728,0.728 0 0 1 0.614,0.53c0.004,0.018 0.455,1.683 1.052,2.607c0.4,0.623 0.806,1.063 1.263,1.367c-0.309,-1.319 -0.546,-3.306 -0.16,-5.345c1.059,-5.595 5.526,-6.933 5.718,-6.987a0.741,0.741 0 0 1 0.695,0.161a0.715,0.715 0 0 1 0.224,0.668c-0.007,0.039 -0.745,3.956 0.82,7.294c0.143,0.303 0.341,0.655 0.554,1.008c0.062,-0.484 0.155,-0.999 0.3,-1.498c0.575,-1.98 2.06,-2.656 2.123,-2.684a0.737,0.737 0 0 1 0.75,0.091a0.718,0.718 0 0 1 0.268,0.697c-0.008,0.049 -0.215,1.396 0.948,3.308c1.051,1.726 1.354,2.845 1.354,4.989c-0.002,5.189 -4.031,8.955 -9.582,8.955zm-7.142,-12.506c-0.401,0.997 -0.814,2.324 -0.814,3.552c0,4.354 3.293,7.514 7.956,7.514c4.704,0 8.119,-3.16 8.119,-7.514c0,-1.88 -0.236,-2.752 -1.146,-4.248c-0.608,-0.999 -0.909,-1.896 -1.053,-2.611a3.384,3.384 0 0 0 -0.377,0.853c-0.445,1.535 -0.333,3.33 -0.332,3.349a0.722,0.722 0 0 1 -0.485,0.726a0.735,0.735 0 0 1 -0.841,-0.263c-0.055,-0.076 -1.354,-1.89 -1.928,-3.111c-1.189,-2.534 -1.169,-5.274 -1.048,-6.853c-1.203,0.69 -3.051,2.235 -3.644,5.376c-0.578,3.057 0.545,6.113 0.557,6.144a0.71,0.71 0 0 1 -0.133,0.733a0.74,0.74 0 0 1 -0.72,0.226c-0.091,-0.021 -2.147,-0.549 -3.479,-2.617a8.013,8.013 0 0 1 -0.632,-1.256z"/>
 </g>
</svg>