<svg width="24" height="24" xmlns="http://www.w3.org/2000/svg" xmlns:svg="http://www.w3.org/2000/svg">
 <g>
  <title>Layer 1</title>
  <path fill="#4fa8dc" id="svg_likes" d="m14.287,21.418c-5.388,0 -5.43,-0.224 -6.097,-0.728c-0.354,-0.267 -1.022,-0.451 -3.462,-0.61a0.636,0.636 0 0 1 -0.457,-0.217c-0.052,-0.063 -1.271,-1.844 -1.271,-4.697c0,-2.812 0.872,-4.094 0.91,-4.153a0.59,0.59 0 0 1 0.502,-0.278c2.003,0 4.78,-2.563 6.646,-7.034c0.323,-0.773 0.39,-1.282 1.576,-1.282c0.674,0 1.43,0.483 1.804,1.104c0.765,1.268 0.376,3.992 0.017,5.448a748.14,748.14 0 0 1 4.489,-0.027c1.466,0 2.435,0.876 2.464,2.155c0.01,0.423 -0.045,0.962 -0.168,1.241c0.323,0.322 0.739,0.808 0.757,1.434c0.022,0.808 -0.505,1.424 -0.842,1.776c0.077,0.234 0.231,0.546 0.217,0.919c-0.037,0.916 -0.743,1.506 -1.183,1.814c0.036,0.25 0.064,0.724 -0.016,1.089c-0.317,1.46 -2.452,2.046 -5.886,2.046zm-9.411,-2.386c2.172,0.18 3.334,0.424 3.946,0.886c0.475,0.357 0.401,0.5 5.506,0.5c1.557,0 4.602,-0.065 4.835,-1.137c0.093,-0.428 -0.357,-0.85 -0.359,-0.853a0.618,0.618 0 0 1 0.314,-0.793c0.005,-0.002 1.215,-0.438 1.243,-1.114c0.018,-0.434 -0.279,-0.694 -0.286,-0.705a0.62,0.62 0 0 1 0.155,-0.838c0.003,-0.003 0.787,-0.479 0.769,-1.129c-0.015,-0.516 -0.693,-0.878 -0.714,-0.89a0.617,0.617 0 0 1 -0.186,-0.9s0.309,-0.491 0.298,-0.951c-0.022,-0.986 -1.081,-1.017 -1.308,-1.017c-1.529,0 -5.457,0.016 -5.457,0.016a0.601,0.601 0 0 1 -0.509,-0.27a0.643,0.643 0 0 1 -0.056,-0.573c0.593,-1.709 0.924,-4.391 0.374,-5.307c-0.162,-0.27 -0.199,-0.539 -0.806,-0.539c-0.084,0 -0.283,0.065 -0.492,0.564c-2.026,4.856 -5.053,7.665 -7.53,7.919c-0.214,0.488 -0.616,1.5 -0.616,3.336c0.001,1.876 0.594,3.326 0.879,3.795z"/>
 </g>
</svg>