<svg width="24" height="24" xmlns="http://www.w3.org/2000/svg" xmlns:svg="http://www.w3.org/2000/svg">
 <g>
  <title>Layer 1</title>
  <path stroke-opacity="0" stroke="#72c6f7" fill="#72c6f7" id="svg_message" d="m22.588,0.995a1.26,1.26 0 0 0 -0.476,0.115l-20.52,8.72c-0.738,0.314 -0.785,0.919 -0.104,1.345l5.799,3.617c0.682,0.425 1.583,1.336 2.003,2.024l3.476,5.699c0.199,0.327 0.44,0.489 0.672,0.489c0.257,0 0.501,-0.197 0.668,-0.586l8.775,-20.531c0.237,-0.556 0.101,-0.892 -0.293,-0.892zm-14.584,12.569l-4.7,-2.932l15.769,-6.7l-10.156,10.342a7.188,7.188 0 0 0 -0.913,-0.71zm5.312,7.133l-2.804,-4.597a7.01,7.01 0 0 0 -0.63,-0.844l10.2,-10.389l-6.766,15.83z"/>
 </g>
</svg>