<svg width="24" height="24" xmlns="http://www.w3.org/2000/svg" xmlns:svg="http://www.w3.org/2000/svg">
 <g>
  <title>Layer 1</title>
  <path fill="#4fa8dc" id="svg_playlist" d="m2.346,1.699l9.219,0c0.364,0 0.659,0.294 0.659,0.655a0.658,0.658 0 0 1 -0.659,0.656l-9.219,0a0.657,0.657 0 0 1 0,-1.311zm0,3.936l9.219,0c0.364,0 0.659,0.294 0.659,0.656s-0.295,0.655 -0.659,0.655l-9.219,0a0.657,0.657 0 1 1 0,-1.311zm0,3.935l9.219,0c0.364,0 0.659,0.294 0.659,0.656s-0.295,0.655 -0.659,0.655l-9.219,0a0.657,0.657 0 1 1 0,-1.311z" clip-rule="evenodd" fill-rule="evenodd"/>
  <path fill="#4fa8dc" id="svg_2" d="m12.221,17.449c1.556,0 2.641,1.035 2.641,1.964c0,0.93 -1.085,1.966 -2.641,1.966c-1.557,0 -2.642,-1.036 -2.642,-1.966c0,-0.929 1.085,-1.964 2.642,-1.964m0.015,-1.322c-2.183,0 -3.953,1.472 -3.953,3.285c0,1.815 1.771,3.287 3.953,3.287c2.184,0 3.953,-1.472 3.953,-3.287c0,-1.813 -1.769,-3.285 -3.953,-3.285z"/>
  <path fill="#4fa8dc" id="svg_3" d="m15.124,1.942a0.66,0.66 0 0 1 0.931,0l6.439,6.414c0.257,0.256 0.257,0.672 0,0.928s-0.674,0.256 -0.932,0l-6.438,-6.414a0.655,0.655 0 0 1 0,-0.928z" clip-rule="evenodd" fill-rule="evenodd"/>
  <path fill="#4fa8dc" id="svg_4" d="m15.516,1.781c0.364,0 0.658,0.293 0.658,0.655l0,17.055a0.657,0.657 0 0 1 -1.316,0l0,-17.054a0.656,0.656 0 0 1 0.658,-0.656z" clip-rule="evenodd" fill-rule="evenodd"/>
 </g>
</svg>